FFmpeg version SVN-r25716, Copyright (c) 2000-2010 the FFmpeg developers  built on Nov 10 2010 12:23:18 with gcc 4.1.2 20080704 (Red Hat 4.1.2-48)  configuration: --enable-libmp3lame --enable-shared --disable-mmx --arch=x86_64  libavutil     50.33. 0 / 50.33. 0  libavcore      0.12. 1 /  0.12. 1  libavcodec    52.94. 4 / 52.94. 4  libavformat   52.84. 0 / 52.84. 0  libavdevice   52. 2. 2 / 52. 2. 2  libavfilter    1.59. 0 /  1.59. 0  libswscale     0.12. 0 /  0.12. 0[mov,mp4,m4a,3gp,3g2,mj2 @ 0x142bb4c0] max_analyze_duration reachedSeems stream 0 codec frame rate differs from container frame rate: 600.00 (600/1) -> 5.00 (5/1)Input #0, mov,mp4,m4a,3gp,3g2,mj2, from '/RAID10/data/converted_video_files/23599.mov':  Metadata:    major_brand     : qt      minor_version   : 537199360    compatible_brands: qt    Duration: 00:00:17.40, bitrate: 729 kb/s    Stream #0.0(eng): Video: svq1, yuv410p, 435x276, 729 kb/s, 5 fps, 5 tbr, 600 tbn, 600 tbc[buffer @ 0x142c0b20] w:435 h:276 pixfmt:yuv410p[ffsink @ 0x142c0d90] auto-inserting filter 'auto-inserted scaler 0' between the filter 'src' and the filter 'out'[scale @ 0x142c10b0] w:435 h:276 fmt:yuv410p -> w:435 h:276 fmt:yuv420p flags:0x4Output #0, flv, to '/RAID10/data/converted_video_files/23599.flv':  Metadata:    encoder         : Lavf52.84.0    Stream #0.0(eng): Video: flv, yuv420p, 435x276, q=2-31, 600 kb/s, 1k tbn, 24 tbcStream mapping:  Stream #0.0 -> #0.0Press [q] to stop encodingframe=   76 fps=  0 q=2.6 size=     540kB time=15.04 bitrate= 293.9kbits/s    frame=   87 fps=  0 q=2.5 Lsize=     635kB time=17.25 bitrate= 301.6kbits/s    video:633kB audio:0kB global headers:0kB muxing overhead 0.246980%